<svg width="22" height="22" viewBox="0 0 22 22" fill="none" xmlns="http://www.w3.org/2000/svg">
<rect width="22" height="22" rx="4" fill="#F9F9F9"/>
<path d="M10.8357 10.7388C12.2313 10.7388 13.3725 9.60438 13.3725 8.20875C13.3725 6.81313 12.2382 5.67188 10.8357 5.67188C9.44004 5.67188 8.30566 6.80625 8.30566 8.20875C8.30566 9.61125 9.44004 10.7388 10.8357 10.7388Z" fill="#1F1F1F"/>
<path d="M12.8151 11.7222H9.19198C7.56948 11.7222 6.25635 13.0422 6.25635 14.6578V15.1253C6.25635 15.7853 6.79947 16.3284 7.45947 16.3284H14.5476C15.2076 16.3284 15.7507 15.7853 15.7507 15.1253V14.6647C15.7507 13.0422 14.4307 11.7222 12.8151 11.7222Z" fill="#1F1F1F"/>
</svg>
