<svg width="24" height="10" viewBox="0 0 24 10" fill="none" xmlns="http://www.w3.org/2000/svg">
<path fill-rule="evenodd" clip-rule="evenodd" d="M14.4053 0.34467C14.6982 0.637563 14.6982 1.11244 14.4053 1.40533L6.15533 9.65533C5.86244 9.94822 5.38756 9.94822 5.09467 9.65533L0.96967 5.53033C0.676777 5.23744 0.676777 4.76256 0.96967 4.46967C1.26256 4.17678 1.73744 4.17678 2.03033 4.46967L5.625 8.06434L13.3447 0.34467C13.6376 0.0517767 14.1124 0.0517767 14.4053 0.34467Z" fill="#868686"/>
<path fill-rule="evenodd" clip-rule="evenodd" d="M23.0305 0.34467C23.3234 0.637563 23.3234 1.11244 23.0305 1.40533L14.7805 9.65533C14.4876 9.94822 14.0127 9.94822 13.7198 9.65533L11.5261 7.46158C11.2332 7.16869 11.2332 6.69381 11.5261 6.40092C11.819 6.10803 12.2938 6.10803 12.5867 6.40092L14.2501 8.06434L21.9698 0.34467C22.2627 0.0517767 22.7376 0.0517767 23.0305 0.34467Z" fill="#868686"/>
</svg>
