<svg width="22" height="15" viewBox="0 0 22 15" fill="none" xmlns="http://www.w3.org/2000/svg">
<path fill-rule="evenodd" clip-rule="evenodd" d="M14.4202 2.67519C13.3242 2.22494 12.1502 1.99551 10.9654 2.00007C6.00744 2.01734 2 6.11558 2 11.1032V13.2501H20V11.0001C20 9.81525 19.7661 8.64209 19.3116 7.5479C18.8572 6.45371 18.1911 5.46002 17.3517 4.62384C16.5123 3.78765 15.5161 3.12544 14.4202 2.67519ZM10.9599 0.500077C12.3421 0.494796 13.7117 0.762462 14.9902 1.28772C16.2688 1.81302 17.4311 2.5856 18.4104 3.56114C19.3897 4.53669 20.1667 5.69599 20.6969 6.97255C21.2271 8.24911 21.5 9.61779 21.5 11.0001V13.2501C21.5 13.6479 21.342 14.0294 21.0607 14.3107C20.7794 14.592 20.3978 14.7501 20 14.7501H2C1.60218 14.7501 1.22065 14.592 0.93934 14.3107C0.658035 14.0294 0.5 13.6479 0.5 13.2501V11.1032C0.5 5.30965 5.15546 0.52045 10.9599 0.500077Z" fill="#868686"/>
<path fill-rule="evenodd" clip-rule="evenodd" d="M11 0.500092C11.4142 0.500092 11.75 0.835878 11.75 1.25009V4.25009C11.75 4.6643 11.4142 5.00009 11 5.00009C10.5858 5.00009 10.25 4.6643 10.25 4.25009V1.25009C10.25 0.835878 10.5858 0.500092 11 0.500092Z" fill="#868686"/>
<path fill-rule="evenodd" clip-rule="evenodd" d="M0.853463 8.28421C0.960592 7.88409 1.3718 7.64657 1.77192 7.7537L4.67817 8.53182C5.07829 8.63895 5.31581 9.05016 5.20868 9.45028C5.10155 9.8504 4.69034 10.0879 4.29022 9.98079L1.38397 9.20266C0.983851 9.09554 0.746334 8.68433 0.853463 8.28421Z" fill="#868686"/>
<path fill-rule="evenodd" clip-rule="evenodd" d="M21.1462 8.28421C21.2533 8.68433 21.0158 9.09554 20.6157 9.20266L17.7094 9.98079C17.3093 10.0879 16.8981 9.8504 16.791 9.45028C16.6838 9.05016 16.9213 8.63895 17.3215 8.53182L20.2277 7.7537C20.6278 7.64657 21.039 7.88409 21.1462 8.28421Z" fill="#868686"/>
<path fill-rule="evenodd" clip-rule="evenodd" d="M15.5628 5.05203C15.8914 5.30426 15.9533 5.77509 15.7011 6.10365L9.28856 14.4568C9.03633 14.7853 8.5655 14.8472 8.23694 14.595C7.90838 14.3428 7.8465 13.8719 8.09873 13.5434L14.5112 5.19025C14.7635 4.86168 15.2343 4.7998 15.5628 5.05203Z" fill="#868686"/>
</svg>
