<svg width="40" height="40" viewBox="0 0 40 40" fill="none" xmlns="http://www.w3.org/2000/svg">
<rect width="40" height="40" rx="4" fill="#F9F9F9"/>
<path d="M28.49 15.9C28.4786 16.2579 28.3819 16.608 28.208 16.9211C28.0341 17.2342 27.7879 17.5012 27.49 17.7L21 21.53C20.6951 21.7037 20.3509 21.7966 20 21.8C19.6493 21.8058 19.3035 21.7159 19 21.54L12.52 17.7C12.2209 17.5024 11.9739 17.2356 11.7998 16.9223C11.6257 16.609 11.5298 16.2583 11.52 15.9C11.5314 15.5434 11.6281 15.1947 11.8021 14.8832C11.9761 14.5718 12.2223 14.3066 12.52 14.11L19 10.26C19.3059 10.0901 19.6501 10.001 20 10.001C20.3499 10.001 20.6941 10.0901 21 10.26L27.48 14.11C27.7826 14.3023 28.033 14.5663 28.2092 14.8785C28.3854 15.1907 28.4818 15.5416 28.49 15.9Z" fill="#1F1F1F"/>
<path d="M28.4901 20.0002C28.4952 20.36 28.4055 20.7149 28.23 21.0292C28.0544 21.3434 27.7993 21.6058 27.4901 21.7902L21.0001 25.6302C20.695 25.8034 20.3509 25.8964 20.0001 25.9002C19.6505 25.8969 19.3071 25.8076 19.0001 25.6402L12.5201 21.7902C12.2074 21.6098 11.9493 21.3482 11.7733 21.0331C11.5972 20.7179 11.5097 20.361 11.5201 20.0002C11.5196 19.7116 11.5774 19.4258 11.6901 19.1602L11.7901 19.2302L18.2901 23.1002C18.8166 23.392 19.4081 23.5467 20.0101 23.5502C20.626 23.5502 21.2304 23.3844 21.7601 23.0702L28.2401 19.2302L28.3301 19.1702C28.4394 19.433 28.4939 19.7155 28.4901 20.0002Z" fill="#1F1F1F"/>
<path d="M28.4901 24.0898C28.4959 24.4512 28.4066 24.8077 28.2311 25.1237C28.0556 25.4396 27.8 25.7038 27.4901 25.8898L21.0001 29.7298C20.695 29.9031 20.3509 29.996 20.0001 29.9998C19.6504 29.9965 19.307 29.9072 19.0001 29.7398L12.5201 25.8898C12.2058 25.7086 11.9468 25.4454 11.7706 25.1283C11.5945 24.8113 11.5078 24.4523 11.5201 24.0898C11.5203 23.8045 11.5781 23.5222 11.6901 23.2598L11.7901 23.3298L18.2901 27.1898C18.8148 27.4862 19.4074 27.6412 20.0101 27.6398C20.6265 27.6443 21.2322 27.4782 21.7601 27.1598L28.2401 23.3298L28.3301 23.2698C28.4383 23.5295 28.4927 23.8084 28.4901 24.0898Z" fill="#1F1F1F"/>
</svg>
