<svg width="14" height="13" viewBox="0 0 14 13" fill="none" xmlns="http://www.w3.org/2000/svg">
<path fill-rule="evenodd" clip-rule="evenodd" d="M0.25 0.9375C0.25 0.62684 0.50184 0.375 0.8125 0.375H13.1875C13.4982 0.375 13.75 0.62684 13.75 0.9375V9.375C13.75 9.67337 13.6315 9.95952 13.4205 10.1705C13.2095 10.3815 12.9234 10.5 12.625 10.5H9.8125C9.51413 10.5 9.22798 10.3815 9.017 10.1705C8.80602 9.95952 8.6875 9.67337 8.6875 9.375V8.25H5.3125V11.625C5.3125 11.9234 5.19397 12.2095 4.98299 12.4205C4.77202 12.6315 4.48587 12.75 4.1875 12.75H1.375C1.07663 12.75 0.790484 12.6315 0.579505 12.4205C0.368526 12.2095 0.25 11.9234 0.25 11.625V0.9375ZM1.375 1.5V11.625H4.1875V7.6875C4.1875 7.37684 4.43934 7.125 4.75 7.125H9.25C9.56066 7.125 9.8125 7.37684 9.8125 7.6875V9.375H12.625V1.5H1.375Z" fill="#1F1F1F"/>
<path fill-rule="evenodd" clip-rule="evenodd" d="M0.25 5.4375C0.25 5.12684 0.50184 4.875 0.8125 4.875H4.75C5.06066 4.875 5.3125 5.12684 5.3125 5.4375C5.3125 5.74816 5.06066 6 4.75 6H0.8125C0.50184 6 0.25 5.74816 0.25 5.4375Z" fill="#1F1F1F"/>
<path fill-rule="evenodd" clip-rule="evenodd" d="M4.75 0.375C5.06066 0.375 5.3125 0.62684 5.3125 0.9375V7.6875C5.3125 7.99816 5.06066 8.25 4.75 8.25C4.43934 8.25 4.1875 7.99816 4.1875 7.6875V0.9375C4.1875 0.62684 4.43934 0.375 4.75 0.375Z" fill="#1F1F1F"/>
<path fill-rule="evenodd" clip-rule="evenodd" d="M8.6875 5.4375C8.6875 5.12684 8.93934 4.875 9.25 4.875H13.1875C13.4982 4.875 13.75 5.12684 13.75 5.4375C13.75 5.74816 13.4982 6 13.1875 6H9.25C8.93934 6 8.6875 5.74816 8.6875 5.4375Z" fill="#1F1F1F"/>
<path fill-rule="evenodd" clip-rule="evenodd" d="M9.25 0.375C9.56066 0.375 9.8125 0.62684 9.8125 0.9375V7.6875C9.8125 7.99816 9.56066 8.25 9.25 8.25C8.93934 8.25 8.6875 7.99816 8.6875 7.6875V0.9375C8.6875 0.62684 8.93934 0.375 9.25 0.375Z" fill="#1F1F1F"/>
</svg>
