<svg width="60" height="60" viewBox="0 0 60 60" fill="none" xmlns="http://www.w3.org/2000/svg">
<rect width="60" height="60" rx="4" fill="#F9F9F9"/>
<path d="M29.5499 29.2875C33.3562 29.2875 36.4686 26.1938 36.4686 22.3875C36.4686 18.5813 33.3749 15.4688 29.5499 15.4688C25.7437 15.4688 22.6499 18.5625 22.6499 22.3875C22.6499 26.2125 25.7437 29.2875 29.5499 29.2875Z" fill="#1F1F1F"/>
<path d="M34.95 31.9688H25.0688C20.6438 31.9688 17.0625 35.5687 17.0625 39.975V41.25C17.0625 43.05 18.5438 44.5312 20.3438 44.5312H39.675C41.475 44.5312 42.9563 43.05 42.9563 41.25V39.9937C42.9563 35.5687 39.3563 31.9688 34.95 31.9688Z" fill="#1F1F1F"/>
</svg>
