<svg width="40" height="40" viewBox="0 0 40 40" fill="none" xmlns="http://www.w3.org/2000/svg">
<rect width="40" height="40" rx="4" fill="#F9F9F9"/>
<path d="M28.15 14.9332L25.0667 11.8498C24.95 11.7332 24.7917 11.6665 24.625 11.6665C24.4584 11.6665 24.3 11.7332 24.1834 11.8498L11.8584 24.1748C11.7417 24.2915 11.6833 24.4415 11.675 24.6082L11.6667 27.7082C11.6667 27.8748 11.7334 28.0332 11.85 28.1498C11.9667 28.2665 12.125 28.3332 12.2917 28.3332L15.3917 28.3248C15.5584 28.3248 15.7167 28.2582 15.825 28.1415L28.15 15.8165C28.3917 15.5748 28.3917 15.1748 28.15 14.9332ZM25.375 16.8248C25.3584 16.8082 25.3583 16.7832 25.3333 16.7665L23.2334 14.6665C23.2167 14.6498 23.1917 14.6415 23.175 14.6248L24.625 13.1748L26.825 15.3748L25.375 16.8248Z" fill="#1F1F1F"/>
</svg>
