<svg width="40" height="40" viewBox="0 0 40 40" fill="none" xmlns="http://www.w3.org/2000/svg">
<rect width="40" height="40" rx="4" fill="#F9F9F9"/>
<path d="M20 11.6665C15.4084 11.6665 11.6667 15.4082 11.6667 19.9998C11.6667 24.5915 15.4084 28.3332 20 28.3332C24.5917 28.3332 28.3334 24.5915 28.3334 19.9998C28.3334 15.4082 24.5917 11.6665 20 11.6665ZM20 17.5665C19.6584 17.5665 19.375 17.2915 19.375 16.9415C19.375 16.5998 19.6584 16.3165 20 16.3165C20.35 16.3165 20.625 16.5998 20.625 16.9415C20.625 17.2915 20.35 17.5665 20 17.5665ZM20.625 22.9832C20.625 23.3332 20.3417 23.6082 20 23.6082C19.6584 23.6082 19.375 23.3332 19.375 22.9832V19.0998C19.375 18.7498 19.6584 18.4748 20 18.4748C20.3417 18.4748 20.625 18.7498 20.625 19.0998V22.9832Z" fill="black"/>
</svg>
